<?xml version="1.0" encoding="UTF-8" standalone="no"?>
<!DOCTYPE svg PUBLIC "-//W3C//DTD SVG 1.1//EN" "http://www.w3.org/Graphics/SVG/1.1/DTD/svg11.dtd">
<svg width="100%" height="100%" viewBox="0 0 39 52" version="1.1" xmlns="http://www.w3.org/2000/svg" xmlns:xlink="http://www.w3.org/1999/xlink" xml:space="preserve" xmlns:serif="http://www.serif.com/" style="fill-rule:evenodd;clip-rule:evenodd;stroke-linejoin:round;stroke-miterlimit:2;">
    <g transform="matrix(0.929433,0,0,0.985179,-8.6074,-3.85258)">
        <rect id="Artboard1" x="9.261" y="3.911" width="41.461" height="52.413" style="fill:none;"/>
        <g id="Artboard11" serif:id="Artboard1">
            <g transform="matrix(1.07593,0,0,1.01504,-2.53277,0.310727)">
                <path d="M28.076,53.402C28.249,53.791 28.193,54.244 27.931,54.58C27.67,54.916 27.244,55.081 26.824,55.008C16.412,53.105 11.219,41.556 11.219,28.134C11.219,14.204 17.607,7.142 28.227,3.753C28.544,3.652 28.888,3.768 29.08,4.038C29.083,4.037 29.083,4.038 29.083,4.038C31.342,7.216 31.82,10.586 32.426,13.474C34.328,22.539 30.413,29.372 28.704,31.318C22.858,39.171 26.182,49.049 28.076,53.402ZM33.264,7.693C32.802,6.871 32.902,5.848 33.515,5.132C34.127,4.415 35.122,4.158 36.006,4.487C44.614,7.705 49.202,17.997 49.202,30.192C49.202,42.387 45.207,51.58 36.737,54.407C34.102,55.321 31.221,53.954 30.262,51.335C29.439,49.448 28.974,47.997 28.761,46.167C27.854,38.355 30.205,34.965 33.104,31.293C40,22.558 36.345,13.127 33.264,7.693Z" style="fill:rgb(48,90,53);"/>
            </g>
        </g>
    </g>
</svg>
