<?xml version="1.0" encoding="utf-8"?>
<!-- Generator: Adobe Illustrator 26.4.1, SVG Export Plug-In . SVG Version: 6.00 Build 0)  -->
<svg version="1.1" id="Layer_1" xmlns="http://www.w3.org/2000/svg" xmlns:xlink="http://www.w3.org/1999/xlink" x="0px" y="0px"
	 viewBox="0 0 196 138" style="enable-background:new 0 0 196 138;" xml:space="preserve">
<style type="text/css">
	.st0{fill:#FFFFFF;stroke:#FFFFFF;stroke-miterlimit:10;}
	.st1{fill:none;stroke:#FFFFFF;stroke-width:3;stroke-linecap:round;stroke-miterlimit:10;}
	.st2{fill:none;stroke:#FFFFFF;stroke-miterlimit:10;}
	.st3{fill:none;stroke:#FFFFFF;stroke-width:2;stroke-linecap:round;stroke-miterlimit:10;}
</style>
<g>
	<path class="st0" d="M25.75,52c0,0,0,0.64,0,1.12c-3.05,0-3.77,2.09-3.77,4.62v14.61c0,7.95-4.5,11.28-11.16,11.28
		c-4.17,0-9.59-1.45-10.12-6.42c-0.36-3.33,2.21-5.5,4.94-5.38c2.77,0.12,3.93,2.21,3.93,3.73c-1.65,0.16-2.69,1.32-2.61,3.25
		c0.08,2.01,1.65,3.33,3.61,3.33c3.89,0,4.58-4.62,4.58-10.92V57.74c0-3.09-1.49-4.62-4.54-4.62c0-0.48,0-1.12,0-1.12H25.75z"/>
	<path class="st0" d="M45.95,78.9c-0.72,0.84-1.97,1.57-4.22,1.57c-2.17,0-4.7-0.72-5.3-2.65c-1.4,2.17-3.65,2.65-5.66,2.65
		c-3.33,0-6.46-1.08-7.03-4.01c-0.56-2.93,0.92-5.66,5.66-6.62c3.77-0.76,6.1,0.04,5.66-2.73c-0.36-2.05-1.08-4.17-3.09-4.17
		c-2.53-0.2-3.69,2.29-2.13,3.57c-0.96,1.73-2.61,1.85-3.73,1.32c-1.04-0.52-1.49-1.65-0.92-3.05c0.96-2.61,4.46-3.25,6.74-3.25
		c6.42,0,9.07,2.13,9.8,7.19c0.56,4.05,0.76,5.66,0.76,5.66c0.24,1.41,0.48,3.01,0.88,3.53c0.44,0.52,1.32,0.56,2.25,0.12
		C45.78,78.46,45.83,78.5,45.95,78.9z M35.95,73.88c-0.12-1.45-0.28-2.93-0.44-3.93c-0.32,0.64-0.76,0.84-2.81,1.41
		c-1.73,0.52-2.93,2.01-2.65,4.05c0.28,1.85,2.09,2.97,3.57,2.57C35.55,77.53,36.07,75.81,35.95,73.88z"/>
	<path class="st0" d="M64.09,61.92c0,0,0,0.76,0,1.08c-2.01,0-2.85,1-3.49,2.61L54.78,80.1h-2.69l-6.54-14.49
		c-0.8-1.65-1.32-2.61-3.33-2.61c0-0.56,0-1.08,0-1.08h11.76c0,0,0,0.76,0,1.08c-1.81,0-2.33,0.64-1.61,2.61l3.49,8.19l3.29-8.19
		c0.88-2.21,0-2.61-2.13-2.61c0-0.56,0-1.08,0-1.08H64.09z"/>
	<path class="st0" d="M85.08,78.9c-0.72,0.84-1.97,1.57-4.22,1.57c-2.17,0-4.7-0.72-5.3-2.65c-1.4,2.17-3.65,2.65-5.66,2.65
		c-3.33,0-6.46-1.08-7.03-4.01c-0.56-2.93,0.92-5.66,5.66-6.62c3.77-0.76,6.1,0.04,5.66-2.73c-0.36-2.05-1.08-4.17-3.09-4.17
		c-2.53-0.2-3.69,2.29-2.13,3.57c-0.96,1.73-2.61,1.85-3.73,1.32c-1.04-0.52-1.49-1.65-0.92-3.05c0.96-2.61,4.46-3.25,6.74-3.25
		c6.42,0,9.07,2.13,9.8,7.19c0.56,4.05,0.76,5.66,0.76,5.66c0.24,1.41,0.48,3.01,0.88,3.53c0.44,0.52,1.32,0.56,2.25,0.12
		C84.92,78.46,84.96,78.5,85.08,78.9z M75.09,73.88c-0.12-1.45-0.28-2.93-0.44-3.93c-0.32,0.64-0.76,0.84-2.81,1.41
		c-1.73,0.52-2.93,2.01-2.65,4.05c0.28,1.85,2.09,2.97,3.57,2.57C74.69,77.53,75.21,75.81,75.09,73.88z"/>
	<path class="st0" d="M119.29,60.67c0,0-0.44,0-1.28,0c-1.28-4.01-3.21-7.07-6.66-7.07h-2.09v20.8c0,2.53,0.68,4.62,3.73,4.62
		c0,0.48,0,1.08,0,1.08H98.65c0,0,0-0.6,0-1.08c3.05,0,3.77-2.09,3.77-4.62v-20.8h-2.09c-3.45,0-5.42,3.05-6.66,7.07
		c-0.84,0-1.28,0-1.28,0L93.03,52h25.61L119.29,60.67z"/>
	<path class="st0" d="M137.19,70.99c0,5.66-4.38,9.47-10.4,9.47c-6.06,0-10.44-3.81-10.44-9.47c0-5.66,4.38-9.47,10.44-9.47
		C132.81,61.51,137.19,65.33,137.19,70.99z M130.6,70.31c-0.84-4.82-2.77-7.67-5.22-7.23c-2.45,0.44-3.25,3.77-2.41,8.59
		c0.84,4.78,2.77,7.63,5.18,7.23C130.6,78.46,131.45,75.12,130.6,70.31z"/>
	<path class="st0" d="M169.22,61.92c0,0,0,0.76,0,1.08c-1.97,0-2.77,0.84-3.49,2.61l-5.94,14.49h-2.73l-4.5-11.52l-4.7,11.52h-2.73
		l-6.42-14.49c-0.76-1.73-1.28-2.61-3.25-2.61c0-0.56,0-1.08,0-1.08h11.72c0,0,0,0.76,0,1.08c-1.81,0-2.45,0.64-1.65,2.61l3.41,8.23
		l2.93-7.07l-0.48-1.16c-0.72-1.69-1.08-2.61-3.09-2.61c0-0.56,0-1.08,0-1.08h11.76c0,0,0,0.76,0,1.08c-1.81,0-2.61,0.6-1.93,2.61
		l2.77,8.15l3.37-8.15c0.88-2.21,0-2.61-2.13-2.61c0-0.56,0-1.08,0-1.08H169.22z"/>
	<path class="st0" d="M195.92,79.02c0,0.84,0,1.08,0,1.08h-12.89c0,0,0-0.6,0-1.08c3.05,0,3.09-2.17,2.81-4.62
		c0,0-0.56-3.65-0.8-5.14c-0.36-2.37-0.64-4.54-3.41-4.54c-2.41,0-3.41,2.13-3.41,4.82v4.86c0,2.53,0.24,4.62,3.29,4.62
		c0,0.84,0,1.08,0,1.08H168.3c0,0,0-0.6,0-1.08c3.05,0,3.45-2.09,3.45-4.62v-4.05c0-2.53-0.4-4.62-3.45-4.62c0-0.48,0-0.64,0-1.08
		c2.33,0,6.42-1,8.83-3.13c0.68,0,1.08,0,1.08,0v3.13c1.2-1.69,3.13-3.13,6.38-3.13c4.05,0,6.22,2.17,6.95,7.23
		c0.56,4.01,0.76,5.66,0.76,5.66C192.63,76.77,192.87,79.02,195.92,79.02z"/>
</g>
<path class="st1" d="M162.5,50.5c-8.38-28.05-34.22-49-65-49c-30.61,0-56.48,21.18-65,49"/>
<path class="st1" d="M31.52,85c7.37,29.58,34.12,51.5,65.98,51.5c31.86,0,58.61-21.92,65.98-51.5"/>
<path class="st2" d="M162.66,50"/>
<path class="st2" d="M31.52,86"/>
<path class="st3" d="M152.5,50.5c-6.31-21.1-31.85-39-55-39c-23.03,0-47.59,18.07-54,39"/>
<path class="st3" d="M43.6,85.72c6.31,21.1,31.85,39,55,39c23.03,0,47.59-18.07,54-39"/>
</svg>
